<svg xmlns="http://www.w3.org/2000/svg" width="920" height="420" viewBox="0 0 920 420" role="img" aria-labelledby="title desc">
  <title id="title">Composite Pattern Class Diagram</title>
  <desc id="desc">SyntaxNode owns child SyntaxNode objects and concrete AST node types inherit from SyntaxNode.</desc>
  <defs>
    <marker id="diamond" viewBox="0 0 12 12" refX="2" refY="6" markerWidth="12" markerHeight="12" orient="auto">
      <path d="M 2 6 L 6 2 L 10 6 L 6 10 z" fill="#1f4e8c"/>
    </marker>
    <marker id="triangle" viewBox="0 0 10 10" refX="9" refY="5" markerWidth="9" markerHeight="9" orient="auto">
      <path d="M 0 0 L 10 5 L 0 10 z" fill="#ffffff" stroke="#1f4e8c" stroke-width="1.5"/>
    </marker>
    <style>
      text { font-family: Segoe UI, Arial, sans-serif; fill: #1c2430; }
      .title { font-size: 18px; font-weight: 700; fill: #173f73; }
      .box { fill: #f8fbff; stroke: #1f4e8c; stroke-width: 2; rx: 10; }
      .abstract { fill: #fffaf0; stroke: #b56b00; stroke-width: 2; rx: 10; }
      .head { fill: #ffe7bf; stroke: #b56b00; stroke-width: 2; }
      .name { font-size: 15px; font-weight: 700; }
      .body { font-size: 13px; }
      .compose { stroke: #1f4e8c; stroke-width: 2.4; fill: none; marker-start: url(#diamond); }
      .inherit { stroke: #1f4e8c; stroke-width: 2.2; fill: none; marker-end: url(#triangle); }
      .label { font-size: 12px; fill: #4b5b70; }
    </style>
  </defs>
  <rect width="920" height="420" fill="#ffffff"/>
  <text x="32" y="36" class="title">Composite Pattern</text>

  <g transform="translate(326 70)">
    <rect class="abstract" width="268" height="162"/>
    <rect class="head" width="268" height="48" rx="10"/>
    <text x="134" y="19" text-anchor="middle" class="label">&lt;&lt;abstract&gt;&gt;</text>
    <text x="134" y="38" text-anchor="middle" class="name">SyntaxNode</text>
    <line x1="0" y1="48" x2="268" y2="48" stroke="#b56b00" stroke-width="2"/>
    <text x="16" y="78" class="body">+NodeType type</text>
    <text x="16" y="102" class="body">+Token token</text>
    <text x="16" y="126" class="body">+children: vector&lt;SyntaxNode&gt;</text>
    <text x="16" y="150" class="body">+Accept(NodeVisitor&amp;)</text>
  </g>
  <g transform="translate(72 306)">
    <rect class="box" width="196" height="56"/>
    <text x="98" y="34" text-anchor="middle" class="name">BinaryExprNode</text>
  </g>
  <g transform="translate(362 306)">
    <rect class="box" width="196" height="56"/>
    <text x="98" y="34" text-anchor="middle" class="name">BlockStmtNode</text>
  </g>
  <g transform="translate(652 306)">
    <rect class="box" width="196" height="56"/>
    <text x="98" y="34" text-anchor="middle" class="name">ProgramNode</text>
  </g>

  <path class="compose" d="M 594 132 C 708 132 708 232 594 232"/>
  <text x="730" y="184" text-anchor="middle" class="label">children</text>
  <text x="700" y="203" text-anchor="middle" class="label">0..*</text>
  <path class="inherit" d="M 170 306 C 230 254 302 220 326 180"/>
  <path class="inherit" d="M 460 306 L 460 232"/>
  <path class="inherit" d="M 750 306 C 690 254 618 220 594 180"/>
</svg>
